<?xml version="1.0" encoding="utf-8" standalone="no"?>
<!DOCTYPE svg PUBLIC "-//W3C//DTD SVG 1.1//EN"
  "http://www.w3.org/Graphics/SVG/1.1/DTD/svg11.dtd">
<!-- Created with matplotlib (https://matplotlib.org/) -->
<svg height="345.6pt" version="1.1" viewBox="0 0 460.8 345.6" width="460.8pt" xmlns="http://www.w3.org/2000/svg" xmlns:xlink="http://www.w3.org/1999/xlink">
 <defs>
  <style type="text/css">
*{stroke-linecap:butt;stroke-linejoin:round;}
  </style>
 </defs>
 <g id="figure_1">
  <g id="patch_1">
   <path d="M 0 345.6 
L 460.8 345.6 
L 460.8 0 
L 0 0 
z
" style="fill:none;"/>
  </g>
  <g id="axes_1">
   <g id="PathCollection_1">
    <path clip-path="url(#p68ae6f5314)" d="M 0.106224 345.6 
L 0.212448 345.6 
L 0.318672 345.6 
L 0.424896 345.6 
L 0.53112 345.6 
L 0.637344 345.6 
L 0.743568 345.6 
L 0.849793 345.6 
L 0.956017 345.6 
L 1.062241 345.6 
L 1.168465 345.6 
L 1.274689 345.6 
L 1.274689 345.49757 
L 1.274689 345.395139 
L 1.274689 345.292709 
L 1.274689 345.190279 
L 1.274689 345.087848 
L 1.274689 344.985418 
L 1.274689 344.882988 
L 1.274689 344.780557 
L 1.274689 344.678127 
L 1.274689 344.575697 
L 1.274689 344.473266 
L 1.274689 344.370836 
L 1.168465 344.370836 
L 1.062241 344.370836 
L 0.956017 344.370836 
L 0.849793 344.370836 
L 0.743568 344.370836 
L 0.637344 344.370836 
L 0.53112 344.370836 
L 0.424896 344.370836 
L 0.318672 344.370836 
L 0.212448 344.370836 
L 0.106224 344.370836 
L 0 344.370836 
L 0 344.473266 
L 0 344.575697 
L 0 344.678127 
L 0 344.780557 
L 0 344.882988 
L 0 344.985418 
L 0 345.087848 
L 0 345.190279 
L 0 345.292709 
L 0 345.395139 
L 0 345.49757 
L 0 345.6 
z
" style="fill:#2a3f6d;"/>
    <path clip-path="url(#p68ae6f5314)" d="M 459.737759 345.6 
L 459.843983 345.6 
L 459.950207 345.6 
L 460.056432 345.6 
L 460.162656 345.6 
L 460.26888 345.6 
L 460.375104 345.6 
L 460.481328 345.6 
L 460.587552 345.6 
L 460.693776 345.6 
L 460.8 345.6 
L 460.8 345.49757 
L 460.8 345.395139 
L 460.8 345.292709 
L 460.8 345.190279 
L 460.8 345.087848 
L 460.8 344.985418 
L 460.8 344.882988 
L 460.8 344.780557 
L 460.8 344.678127 
L 460.8 344.575697 
L 460.8 344.473266 
L 460.8 344.370836 
L 460.693776 344.370836 
L 460.587552 344.370836 
L 460.481328 344.370836 
L 460.375104 344.370836 
L 460.26888 344.370836 
L 460.162656 344.370836 
L 460.056432 344.370836 
L 459.950207 344.370836 
L 459.843983 344.370836 
L 459.737759 344.370836 
L 459.737759 344.473266 
L 459.737759 344.575697 
L 459.737759 344.678127 
L 459.737759 344.780557 
L 459.737759 344.882988 
L 459.737759 344.985418 
L 459.737759 345.087848 
L 459.737759 345.190279 
L 459.737759 345.292709 
L 459.737759 345.395139 
L 459.737759 345.49757 
L 459.737759 345.6 
z
" style="fill:#2a3f6d;"/>
    <path clip-path="url(#p68ae6f5314)" d="M 0.106224 1.024303 
L 0.212448 1.024303 
L 0.318672 1.024303 
L 0.424896 1.024303 
L 0.53112 1.024303 
L 0.637344 1.024303 
L 0.743568 1.024303 
L 0.849793 1.024303 
L 0.956017 1.024303 
L 1.062241 1.024303 
L 1.168465 1.024303 
L 1.274689 1.024303 
L 1.274689 0.921873 
L 1.274689 0.819443 
L 1.274689 0.717012 
L 1.274689 0.614582 
L 1.274689 0.512152 
L 1.274689 0.409721 
L 1.274689 0.307291 
L 1.274689 0.204861 
L 1.274689 0.10243 
L 1.274689 0 
L 1.168465 0 
L 1.062241 0 
L 0.956017 0 
L 0.849793 0 
L 0.743568 0 
L 0.637344 0 
L 0.53112 0 
L 0.424896 0 
L 0.318672 0 
L 0.212448 0 
L 0.106224 0 
L 0 0 
L 0 0.10243 
L 0 0.204861 
L 0 0.307291 
L 0 0.409721 
L 0 0.512152 
L 0 0.614582 
L 0 0.717012 
L 0 0.819443 
L 0 0.921873 
L 0 1.024303 
z
" style="fill:#2a3f6d;"/>
    <path clip-path="url(#p68ae6f5314)" d="M 459.737759 1.024303 
L 459.843983 1.024303 
L 459.950207 1.024303 
L 460.056432 1.024303 
L 460.162656 1.024303 
L 460.26888 1.024303 
L 460.375104 1.024303 
L 460.481328 1.024303 
L 460.587552 1.024303 
L 460.693776 1.024303 
L 460.8 1.024303 
L 460.8 0.921873 
L 460.8 0.819443 
L 460.8 0.717012 
L 460.8 0.614582 
L 460.8 0.512152 
L 460.8 0.409721 
L 460.8 0.307291 
L 460.8 0.204861 
L 460.8 0.10243 
L 460.8 0 
L 460.693776 0 
L 460.587552 0 
L 460.481328 0 
L 460.375104 0 
L 460.26888 0 
L 460.162656 0 
L 460.056432 0 
L 459.950207 0 
L 459.843983 0 
L 459.737759 0 
L 459.737759 0.10243 
L 459.737759 0.204861 
L 459.737759 0.307291 
L 459.737759 0.409721 
L 459.737759 0.512152 
L 459.737759 0.614582 
L 459.737759 0.717012 
L 459.737759 0.819443 
L 459.737759 0.921873 
L 459.737759 1.024303 
z
" style="fill:#2a3f6d;"/>
   </g>
   <g id="PathCollection_2">
    <path clip-path="url(#p68ae6f5314)" d="M 1.380913 345.6 
L 1.487137 345.6 
L 1.593361 345.6 
L 1.699585 345.6 
L 1.805809 345.6 
L 1.912033 345.6 
L 2.018257 345.6 
L 2.124481 345.6 
L 2.230705 345.6 
L 2.336929 345.6 
L 2.336929 345.49757 
L 2.336929 345.395139 
L 2.336929 345.292709 
L 2.336929 345.190279 
L 2.336929 345.087848 
L 2.336929 344.985418 
L 2.336929 344.882988 
L 2.336929 344.780557 
L 2.336929 344.678127 
L 2.336929 344.575697 
L 2.336929 344.473266 
L 2.336929 344.370836 
L 2.336929 344.268405 
L 2.336929 344.165975 
L 2.336929 344.063545 
L 2.336929 343.961114 
L 2.336929 343.858684 
L 2.336929 343.756254 
L 2.336929 343.653823 
L 2.336929 343.551393 
L 2.336929 343.448963 
L 2.336929 343.346532 
L 2.230705 343.346532 
L 2.124481 343.346532 
L 2.018257 343.346532 
L 1.912033 343.346532 
L 1.805809 343.346532 
L 1.699585 343.346532 
L 1.593361 343.346532 
L 1.487137 343.346532 
L 1.380913 343.346532 
L 1.274689 343.346532 
L 1.168465 343.346532 
L 1.062241 343.346532 
L 0.956017 343.346532 
L 0.849793 343.346532 
L 0.743568 343.346532 
L 0.637344 343.346532 
L 0.53112 343.346532 
L 0.424896 343.346532 
L 0.318672 343.346532 
L 0.212448 343.346532 
L 0.106224 343.346532 
L 0 343.346532 
L 0 343.448963 
L 0 343.551393 
L 0 343.653823 
L 0 343.756254 
L 0 343.858684 
L 0 343.961114 
L 0 344.063545 
L 0 344.165975 
L 0 344.268405 
L 0 344.370836 
L 0.106224 344.370836 
L 0.212448 344.370836 
L 0.318672 344.370836 
L 0.424896 344.370836 
L 0.53112 344.370836 
L 0.637344 344.370836 
L 0.743568 344.370836 
L 0.849793 344.370836 
L 0.956017 344.370836 
L 1.062241 344.370836 
L 1.168465 344.370836 
L 1.274689 344.370836 
L 1.274689 344.473266 
L 1.274689 344.575697 
L 1.274689 344.678127 
L 1.274689 344.780557 
L 1.274689 344.882988 
L 1.274689 344.985418 
L 1.274689 345.087848 
L 1.274689 345.190279 
L 1.274689 345.292709 
L 1.274689 345.395139 
L 1.274689 345.49757 
L 1.274689 345.6 
z
" style="fill:#7d7c78;"/>
    <path clip-path="url(#p68ae6f5314)" d="M 458.675519 345.6 
L 458.781743 345.6 
L 458.887967 345.6 
L 458.994191 345.6 
L 459.100415 345.6 
L 459.206639 345.6 
L 459.312863 345.6 
L 459.419087 345.6 
L 459.525311 345.6 
L 459.631535 345.6 
L 459.737759 345.6 
L 459.737759 345.49757 
L 459.737759 345.395139 
L 459.737759 345.292709 
L 459.737759 345.190279 
L 459.737759 345.087848 
L 459.737759 344.985418 
L 459.737759 344.882988 
L 459.737759 344.780557 
L 459.737759 344.678127 
L 459.737759 344.575697 
L 459.737759 344.473266 
L 459.737759 344.370836 
L 459.843983 344.370836 
L 459.950207 344.370836 
L 460.056432 344.370836 
L 460.162656 344.370836 
L 460.26888 344.370836 
L 460.375104 344.370836 
L 460.481328 344.370836 
L 460.587552 344.370836 
L 460.693776 344.370836 
L 460.8 344.370836 
L 460.8 344.268405 
L 460.8 344.165975 
L 460.8 344.063545 
L 460.8 343.961114 
L 460.8 343.858684 
L 460.8 343.756254 
L 460.8 343.653823 
L 460.8 343.551393 
L 460.8 343.448963 
L 460.8 343.346532 
L 460.693776 343.346532 
L 460.587552 343.346532 
L 460.481328 343.346532 
L 460.375104 343.346532 
L 460.26888 343.346532 
L 460.162656 343.346532 
L 460.056432 343.346532 
L 459.950207 343.346532 
L 459.843983 343.346532 
L 459.737759 343.346532 
L 459.631535 343.346532 
L 459.525311 343.346532 
L 459.419087 343.346532 
L 459.312863 343.346532 
L 459.206639 343.346532 
L 459.100415 343.346532 
L 458.994191 343.346532 
L 458.887967 343.346532 
L 458.781743 343.346532 
L 458.675519 343.346532 
L 458.675519 343.448963 
L 458.675519 343.551393 
L 458.675519 343.653823 
L 458.675519 343.756254 
L 458.675519 343.858684 
L 458.675519 343.961114 
L 458.675519 344.063545 
L 458.675519 344.165975 
L 458.675519 344.268405 
L 458.675519 344.370836 
L 458.675519 344.473266 
L 458.675519 344.575697 
L 458.675519 344.678127 
L 458.675519 344.780557 
L 458.675519 344.882988 
L 458.675519 344.985418 
L 458.675519 345.087848 
L 458.675519 345.190279 
L 458.675519 345.292709 
L 458.675519 345.395139 
L 458.675519 345.49757 
L 458.675519 345.6 
z
" style="fill:#7d7c78;"/>
    <path clip-path="url(#p68ae6f5314)" d="M 0.106224 2.048607 
L 0.212448 2.048607 
L 0.318672 2.048607 
L 0.424896 2.048607 
L 0.53112 2.048607 
L 0.637344 2.048607 
L 0.743568 2.048607 
L 0.849793 2.048607 
L 0.956017 2.048607 
L 1.062241 2.048607 
L 1.168465 2.048607 
L 1.274689 2.048607 
L 1.380913 2.048607 
L 1.487137 2.048607 
L 1.593361 2.048607 
L 1.699585 2.048607 
L 1.805809 2.048607 
L 1.912033 2.048607 
L 2.018257 2.048607 
L 2.124481 2.048607 
L 2.230705 2.048607 
L 2.336929 2.048607 
L 2.336929 1.946177 
L 2.336929 1.843746 
L 2.336929 1.741316 
L 2.336929 1.638886 
L 2.336929 1.536455 
L 2.336929 1.434025 
L 2.336929 1.331595 
L 2.336929 1.229164 
L 2.336929 1.126734 
L 2.336929 1.024303 
L 2.336929 0.921873 
L 2.336929 0.819443 
L 2.336929 0.717012 
L 2.336929 0.614582 
L 2.336929 0.512152 
L 2.336929 0.409721 
L 2.336929 0.307291 
L 2.336929 0.204861 
L 2.336929 0.10243 
L 2.336929 0 
L 2.230705 0 
L 2.124481 0 
L 2.018257 0 
L 1.912033 0 
L 1.805809 0 
L 1.699585 0 
L 1.593361 0 
L 1.487137 0 
L 1.380913 0 
L 1.274689 0 
L 1.274689 0.10243 
L 1.274689 0.204861 
L 1.274689 0.307291 
L 1.274689 0.409721 
L 1.274689 0.512152 
L 1.274689 0.614582 
L 1.274689 0.717012 
L 1.274689 0.819443 
L 1.274689 0.921873 
L 1.274689 1.024303 
L 1.168465 1.024303 
L 1.062241 1.024303 
L 0.956017 1.024303 
L 0.849793 1.024303 
L 0.743568 1.024303 
L 0.637344 1.024303 
L 0.53112 1.024303 
L 0.424896 1.024303 
L 0.318672 1.024303 
L 0.212448 1.024303 
L 0.106224 1.024303 
L 0 1.024303 
L 0 1.126734 
L 0 1.229164 
L 0 1.331595 
L 0 1.434025 
L 0 1.536455 
L 0 1.638886 
L 0 1.741316 
L 0 1.843746 
L 0 1.946177 
L 0 2.048607 
z
" style="fill:#7d7c78;"/>
    <path clip-path="url(#p68ae6f5314)" d="M 458.675519 2.048607 
L 458.781743 2.048607 
L 458.887967 2.048607 
L 458.994191 2.048607 
L 459.100415 2.048607 
L 459.206639 2.048607 
L 459.312863 2.048607 
L 459.419087 2.048607 
L 459.525311 2.048607 
L 459.631535 2.048607 
L 459.737759 2.048607 
L 459.843983 2.048607 
L 459.950207 2.048607 
L 460.056432 2.048607 
L 460.162656 2.048607 
L 460.26888 2.048607 
L 460.375104 2.048607 
L 460.481328 2.048607 
L 460.587552 2.048607 
L 460.693776 2.048607 
L 460.8 2.048607 
L 460.8 1.946177 
L 460.8 1.843746 
L 460.8 1.741316 
L 460.8 1.638886 
L 460.8 1.536455 
L 460.8 1.434025 
L 460.8 1.331595 
L 460.8 1.229164 
L 460.8 1.126734 
L 460.8 1.024303 
L 460.693776 1.024303 
L 460.587552 1.024303 
L 460.481328 1.024303 
L 460.375104 1.024303 
L 460.26888 1.024303 
L 460.162656 1.024303 
L 460.056432 1.024303 
L 459.950207 1.024303 
L 459.843983 1.024303 
L 459.737759 1.024303 
L 459.737759 0.921873 
L 459.737759 0.819443 
L 459.737759 0.717012 
L 459.737759 0.614582 
L 459.737759 0.512152 
L 459.737759 0.409721 
L 459.737759 0.307291 
L 459.737759 0.204861 
L 459.737759 0.10243 
L 459.737759 0 
L 459.631535 0 
L 459.525311 0 
L 459.419087 0 
L 459.312863 0 
L 459.206639 0 
L 459.100415 0 
L 458.994191 0 
L 458.887967 0 
L 458.781743 0 
L 458.675519 0 
L 458.675519 0.10243 
L 458.675519 0.204861 
L 458.675519 0.307291 
L 458.675519 0.409721 
L 458.675519 0.512152 
L 458.675519 0.614582 
L 458.675519 0.717012 
L 458.675519 0.819443 
L 458.675519 0.921873 
L 458.675519 1.024303 
L 458.675519 1.126734 
L 458.675519 1.229164 
L 458.675519 1.331595 
L 458.675519 1.434025 
L 458.675519 1.536455 
L 458.675519 1.638886 
L 458.675519 1.741316 
L 458.675519 1.843746 
L 458.675519 1.946177 
L 458.675519 2.048607 
z
" style="fill:#7d7c78;"/>
   </g>
   <g id="PathCollection_3">
    <path clip-path="url(#p68ae6f5314)" d="M 2.443154 345.6 
L 2.443154 345.49757 
L 2.443154 345.395139 
L 2.443154 345.292709 
L 2.443154 345.190279 
L 2.443154 345.087848 
L 2.443154 344.985418 
L 2.443154 344.882988 
L 2.443154 344.780557 
L 2.443154 344.678127 
L 2.443154 344.575697 
L 2.443154 344.473266 
L 2.443154 344.370836 
L 2.443154 344.268405 
L 2.443154 344.165975 
L 2.443154 344.063545 
L 2.443154 343.961114 
L 2.443154 343.858684 
L 2.443154 343.756254 
L 2.443154 343.653823 
L 2.443154 343.551393 
L 2.443154 343.448963 
L 2.443154 343.346532 
L 2.443154 343.244102 
L 2.336929 343.244102 
L 2.230705 343.244102 
L 2.124481 343.244102 
L 2.018257 343.244102 
L 1.912033 343.244102 
L 1.805809 343.244102 
L 1.699585 343.244102 
L 1.593361 343.244102 
L 1.487137 343.244102 
L 1.380913 343.244102 
L 1.274689 343.244102 
L 1.168465 343.244102 
L 1.062241 343.244102 
L 0.956017 343.244102 
L 0.849793 343.244102 
L 0.743568 343.244102 
L 0.637344 343.244102 
L 0.53112 343.244102 
L 0.424896 343.244102 
L 0.318672 343.244102 
L 0.212448 343.244102 
L 0.106224 343.244102 
L 0 343.244102 
L 0 343.346532 
L 0.106224 343.346532 
L 0.212448 343.346532 
L 0.318672 343.346532 
L 0.424896 343.346532 
L 0.53112 343.346532 
L 0.637344 343.346532 
L 0.743568 343.346532 
L 0.849793 343.346532 
L 0.956017 343.346532 
L 1.062241 343.346532 
L 1.168465 343.346532 
L 1.274689 343.346532 
L 1.380913 343.346532 
L 1.487137 343.346532 
L 1.593361 343.346532 
L 1.699585 343.346532 
L 1.805809 343.346532 
L 1.912033 343.346532 
L 2.018257 343.346532 
L 2.124481 343.346532 
L 2.230705 343.346532 
L 2.336929 343.346532 
L 2.336929 343.448963 
L 2.336929 343.551393 
L 2.336929 343.653823 
L 2.336929 343.756254 
L 2.336929 343.858684 
L 2.336929 343.961114 
L 2.336929 344.063545 
L 2.336929 344.165975 
L 2.336929 344.268405 
L 2.336929 344.370836 
L 2.336929 344.473266 
L 2.336929 344.575697 
L 2.336929 344.678127 
L 2.336929 344.780557 
L 2.336929 344.882988 
L 2.336929 344.985418 
L 2.336929 345.087848 
L 2.336929 345.190279 
L 2.336929 345.292709 
L 2.336929 345.395139 
L 2.336929 345.49757 
L 2.336929 345.6 
z
" style="fill:#d2c060;"/>
    <path clip-path="url(#p68ae6f5314)" d="M 458.675519 345.49757 
L 458.675519 345.395139 
L 458.675519 345.292709 
L 458.675519 345.190279 
L 458.675519 345.087848 
L 458.675519 344.985418 
L 458.675519 344.882988 
L 458.675519 344.780557 
L 458.675519 344.678127 
L 458.675519 344.575697 
L 458.675519 344.473266 
L 458.675519 344.370836 
L 458.675519 344.268405 
L 458.675519 344.165975 
L 458.675519 344.063545 
L 458.675519 343.961114 
L 458.675519 343.858684 
L 458.675519 343.756254 
L 458.675519 343.653823 
L 458.675519 343.551393 
L 458.675519 343.448963 
L 458.675519 343.346532 
L 458.781743 343.346532 
L 458.887967 343.346532 
L 458.994191 343.346532 
L 459.100415 343.346532 
L 459.206639 343.346532 
L 459.312863 343.346532 
L 459.419087 343.346532 
L 459.525311 343.346532 
L 459.631535 343.346532 
L 459.737759 343.346532 
L 459.843983 343.346532 
L 459.950207 343.346532 
L 460.056432 343.346532 
L 460.162656 343.346532 
L 460.26888 343.346532 
L 460.375104 343.346532 
L 460.481328 343.346532 
L 460.587552 343.346532 
L 460.693776 343.346532 
L 460.8 343.346532 
L 460.8 343.244102 
L 460.693776 343.244102 
L 460.587552 343.244102 
L 460.481328 343.244102 
L 460.375104 343.244102 
L 460.26888 343.244102 
L 460.162656 343.244102 
L 460.056432 343.244102 
L 459.950207 343.244102 
L 459.843983 343.244102 
L 459.737759 343.244102 
L 459.631535 343.244102 
L 459.525311 343.244102 
L 459.419087 343.244102 
L 459.312863 343.244102 
L 459.206639 343.244102 
L 459.100415 343.244102 
L 458.994191 343.244102 
L 458.887967 343.244102 
L 458.781743 343.244102 
L 458.675519 343.244102 
L 458.569295 343.244102 
L 458.569295 343.346532 
L 458.569295 343.448963 
L 458.569295 343.551393 
L 458.569295 343.653823 
L 458.569295 343.756254 
L 458.569295 343.858684 
L 458.569295 343.961114 
L 458.569295 344.063545 
L 458.569295 344.165975 
L 458.569295 344.268405 
L 458.569295 344.370836 
L 458.569295 344.473266 
L 458.569295 344.575697 
L 458.569295 344.678127 
L 458.569295 344.780557 
L 458.569295 344.882988 
L 458.569295 344.985418 
L 458.569295 345.087848 
L 458.569295 345.190279 
L 458.569295 345.292709 
L 458.569295 345.395139 
L 458.569295 345.49757 
L 458.569295 345.6 
L 458.675519 345.6 
z
" style="fill:#d2c060;"/>
    <path clip-path="url(#p68ae6f5314)" d="M 0.106224 2.151037 
L 0.212448 2.151037 
L 0.318672 2.151037 
L 0.424896 2.151037 
L 0.53112 2.151037 
L 0.637344 2.151037 
L 0.743568 2.151037 
L 0.849793 2.151037 
L 0.956017 2.151037 
L 1.062241 2.151037 
L 1.168465 2.151037 
L 1.274689 2.151037 
L 1.380913 2.151037 
L 1.487137 2.151037 
L 1.593361 2.151037 
L 1.699585 2.151037 
L 1.805809 2.151037 
L 1.912033 2.151037 
L 2.018257 2.151037 
L 2.124481 2.151037 
L 2.230705 2.151037 
L 2.336929 2.151037 
L 2.443154 2.151037 
L 2.443154 2.048607 
L 2.443154 1.946177 
L 2.443154 1.843746 
L 2.443154 1.741316 
L 2.443154 1.638886 
L 2.443154 1.536455 
L 2.443154 1.434025 
L 2.443154 1.331595 
L 2.443154 1.229164 
L 2.443154 1.126734 
L 2.443154 1.024303 
L 2.443154 0.921873 
L 2.443154 0.819443 
L 2.443154 0.717012 
L 2.443154 0.614582 
L 2.443154 0.512152 
L 2.443154 0.409721 
L 2.443154 0.307291 
L 2.443154 0.204861 
L 2.443154 0.10243 
L 2.443154 0 
L 2.336929 0 
L 2.336929 0.10243 
L 2.336929 0.204861 
L 2.336929 0.307291 
L 2.336929 0.409721 
L 2.336929 0.512152 
L 2.336929 0.614582 
L 2.336929 0.717012 
L 2.336929 0.819443 
L 2.336929 0.921873 
L 2.336929 1.024303 
L 2.336929 1.126734 
L 2.336929 1.229164 
L 2.336929 1.331595 
L 2.336929 1.434025 
L 2.336929 1.536455 
L 2.336929 1.638886 
L 2.336929 1.741316 
L 2.336929 1.843746 
L 2.336929 1.946177 
L 2.336929 2.048607 
L 2.230705 2.048607 
L 2.124481 2.048607 
L 2.018257 2.048607 
L 1.912033 2.048607 
L 1.805809 2.048607 
L 1.699585 2.048607 
L 1.593361 2.048607 
L 1.487137 2.048607 
L 1.380913 2.048607 
L 1.274689 2.048607 
L 1.168465 2.048607 
L 1.062241 2.048607 
L 0.956017 2.048607 
L 0.849793 2.048607 
L 0.743568 2.048607 
L 0.637344 2.048607 
L 0.53112 2.048607 
L 0.424896 2.048607 
L 0.318672 2.048607 
L 0.212448 2.048607 
L 0.106224 2.048607 
L 0 2.048607 
L 0 2.151037 
z
" style="fill:#d2c060;"/>
    <path clip-path="url(#p68ae6f5314)" d="M 458.675519 2.151037 
L 458.781743 2.151037 
L 458.887967 2.151037 
L 458.994191 2.151037 
L 459.100415 2.151037 
L 459.206639 2.151037 
L 459.312863 2.151037 
L 459.419087 2.151037 
L 459.525311 2.151037 
L 459.631535 2.151037 
L 459.737759 2.151037 
L 459.843983 2.151037 
L 459.950207 2.151037 
L 460.056432 2.151037 
L 460.162656 2.151037 
L 460.26888 2.151037 
L 460.375104 2.151037 
L 460.481328 2.151037 
L 460.587552 2.151037 
L 460.693776 2.151037 
L 460.8 2.151037 
L 460.8 2.048607 
L 460.693776 2.048607 
L 460.587552 2.048607 
L 460.481328 2.048607 
L 460.375104 2.048607 
L 460.26888 2.048607 
L 460.162656 2.048607 
L 460.056432 2.048607 
L 459.950207 2.048607 
L 459.843983 2.048607 
L 459.737759 2.048607 
L 459.631535 2.048607 
L 459.525311 2.048607 
L 459.419087 2.048607 
L 459.312863 2.048607 
L 459.206639 2.048607 
L 459.100415 2.048607 
L 458.994191 2.048607 
L 458.887967 2.048607 
L 458.781743 2.048607 
L 458.675519 2.048607 
L 458.675519 1.946177 
L 458.675519 1.843746 
L 458.675519 1.741316 
L 458.675519 1.638886 
L 458.675519 1.536455 
L 458.675519 1.434025 
L 458.675519 1.331595 
L 458.675519 1.229164 
L 458.675519 1.126734 
L 458.675519 1.024303 
L 458.675519 0.921873 
L 458.675519 0.819443 
L 458.675519 0.717012 
L 458.675519 0.614582 
L 458.675519 0.512152 
L 458.675519 0.409721 
L 458.675519 0.307291 
L 458.675519 0.204861 
L 458.675519 0.10243 
L 458.675519 0 
L 458.569295 0 
L 458.569295 0.10243 
L 458.569295 0.204861 
L 458.569295 0.307291 
L 458.569295 0.409721 
L 458.569295 0.512152 
L 458.569295 0.614582 
L 458.569295 0.717012 
L 458.569295 0.819443 
L 458.569295 0.921873 
L 458.569295 1.024303 
L 458.569295 1.126734 
L 458.569295 1.229164 
L 458.569295 1.331595 
L 458.569295 1.434025 
L 458.569295 1.536455 
L 458.569295 1.638886 
L 458.569295 1.741316 
L 458.569295 1.843746 
L 458.569295 1.946177 
L 458.569295 2.048607 
L 458.569295 2.151037 
z
" style="fill:#d2c060;"/>
   </g>
  </g>
 </g>
 <defs>
  <clipPath id="p68ae6f5314">
   <rect height="345.6" width="460.8" x="0" y="0"/>
  </clipPath>
 </defs>
</svg>
